<svg xmlns="http://www.w3.org/2000/svg" xmlns:xlink="http://www.w3.org/1999/xlink" width="256" height="256" viewBox="0 0 256 256"><defs><clipPath id="clip-erpa"><rect width="256" height="256"></rect></clipPath></defs><g id="erpa" clip-path="url(#clip-erpa)"><g id="uOzGLgKdXt-erpa" transform="translate(-62.6 110.764)"><path id="Path_1" data-name="Path 1" d="M166.327-78.022C146.751-72.879,130.648-61.951,117.7-46.2,98.757-22.093,95.6-13.093,95.6,18.729c0,27.322.632,29.893,10.735,46.608,12.314,19.929,19.26,26.357,41.994,39.857,28.1,16.393,76.095,12.214,98.2-8.357,3.473-3.214,7.262-5.786,8.841-5.786a2.815,2.815,0,0,0,2.526-2.893c0-1.607-4.42-.643-10.1,1.929-8.209,4.5-12,4.5-22.734,1.286-7.262-1.929-15.787-4.5-19.26-5.786-3.789-.964-2.21,1.607,4.42,6.75,6,4.5,13.261,8.357,15.787,8.679,3.157,0,2.526,1.286-1.894,2.893-6,2.571-9.157.964-17.682-8.036-10.1-10.607-19.26-14.143-21.786-9-.631,1.607-5.368,6.75-11.051,11.893-7.894,7.393-11.051,8.357-15.787,5.464-3.157-1.929-4.1-3.536-1.894-3.536s9.157-3.536,15.471-8.036c8.209-5.786,9.788-8.036,5.683-8.036a42.036,42.036,0,0,0-13.893,4.821,41.937,41.937,0,0,1-14.84,4.821c-8.209,0-24.628-5.786-22.418-8.357.947-.643,5.368,0,9.788,1.607,6,2.25,11.683,1.929,20.208-1.286,6.631-2.25,10.1-4.5,8.209-4.5-2.21-.321-8.209-4.821-13.577-10.286-5.052-5.786-9.472-9-9.472-7.071,0,1.607,2.842,6.107,6.631,10.286,3.789,3.857,6,7.714,5.683,8.357-.631.643-7.262,0-14.524-1.286-8.841-1.929-13.893-1.607-14.84.964-.947,2.25-1.579,2.25-1.579-.321-.316-2.25-3.789-7.714-8.209-12.536s-7.578-10.286-6.946-12.214-.632-5.464-3.157-7.714c-2.21-2.25-4.1-7.393-3.789-11.25,0-4.821.631-5.464,1.894-2.25,2.21,6.429,10.735,16.072,17.05,19.286,4.1,2.571,5.052,0,5.368-17.036.631-21.214-4.42-22.5-6.315-1.286l-.947,12.536L106.651,31.586c-8.209-13.5-9.788-18.964-7.262-21.536,2.842-2.893,3.789-1.929,3.789,4.179,0,4.5,2.842,10.929,6.315,14.143,6,5.786,6.315,5.464,6.315-.964,0-3.536,1.579-10.607,3.789-15.75C124.333-.879,125.28-5.7,121.807-3.45c-4.1,2.571-3.473-.964,2.21-10.929,4.1-7.071,3.157-6.75-4.736,2.571-5.368,6.107-9.788,13.179-9.788,15.75,0,3.536,1.263,3.214,5.052-1.607,4.42-5.786,4.736-5.786,3.157-.321-.947,3.536-2.842,9.643-3.789,14.143-1.894,7.071-2.842,5.786-7.894-9-3.473-11.25-4.42-18.964-2.842-22.179,2.21-3.536,2.842-2.571,3.157,4.179,0,16.393,6.315,5.464,6.631-11.572,0-11.572.947-14.786,2.526-10.286,1.579,3.536,1.894,8.357.947,10.929-2.21,6.429,13.261-5.464,18.629-14.143,3.473-6.107,3.473-6.107-2.21-1.607-3.157,2.571-6.946,6.107-8.209,8.036-4.1,5.786-5.683-.643-2.526-9.964,4.1-10.929,12.314-20.572,17.05-20.572,1.894,0,1.263,1.929-1.579,4.179a40.253,40.253,0,0,0-9.157,11.893c-3.789,7.714-3.473,7.714,6-1.607,5.368-5.143,9.472-10.929,8.841-12.536-2.526-7.393,25.26-16.072,49.888-15.75,23.681.321,26.523.964,33.469,8.036,3.789,4.179,6,5.786,4.736,3.536s.316-2.893,4.736-1.929c4.1,1.286,5.052,2.571,3.157,4.179-2.526,1.286-1.579,4.179,2.842,8.036,3.789,3.536,5.683,8.036,4.736,11.572-1.263,3.536.631,7.393,5.052,10.286,3.473,2.893,5.683,6.429,4.736,8.357-1.263,1.929,1.263,8.679,5.683,15.429,6.315,9.321,8.209,10.607,9.788,6.429.947-2.893,2.21-7.714,3.158-10.607,3.789-12.214,4.1-1.286.316,14.786l-3.789,17.679L266.418,9.407c-7.578-17.679-9.472-12.857-2.842,6.75,5.368,15.75,6,16.072,10.1,9.643a108.586,108.586,0,0,0,6.631-15.107l2.21-8.036.316,9c.316,5.143-3.473,14.143-8.209,20.893-13.261,18.322-13.893,18.964-11.683,8.036.947-5.464.632-12.536-1.263-15.75-2.526-4.5-3.473-1.286-4.42,13.822-.947,17.679-.316,19.286,4.42,16.714,2.842-1.607,8.841-7.714,13.261-13.179,5.368-6.75,7.578-8.357,6.315-4.179-3.158,9-13.261,19.929-24.944,27L246.21,70.8l4.42-12.857c2.526-7.071,3.789-14.464,3.157-16.393s-4.1,5.464-7.894,16.714c-3.473,10.929-6,19.929-5.683,19.929,4.736,0,26.207-11.572,29.68-15.75,3.473-4.5,3.789-4.179.632,1.929a27.28,27.28,0,0,1-10.42,11.25c-9.472,5.143-30.627,8.679-30.627,5.464A2.815,2.815,0,0,1,232,78.194c1.579,0,4.42-3.536,6.315-8.036,4.736-10.607,3.789-10.286-9.788,2.893-11.051,10.607-11.051,10.929-4.42,12.857,12.63,3.536,25.26,1.929,31.575-3.536,3.473-3.214,5.368-3.857,4.1-1.929-5.052,9,3.157,3.536,9.788-6.429C283.784,52.8,287.257,39.622,285.363,12.3c-1.894-33.429-16.1-59.786-41.678-77.465C220-81.558,194.112-85.737,166.327-78.022Zm85.883,23.464c4.736,5.786,12.946,26.679,11.051,28.929-.631.321-4.42-2.893-8.841-7.393-6-6.75-6.315-7.714-1.579-5.786,6.946,2.893,5.052-1.929-5.368-14.143-3.473-3.857-5.052-7.071-3.157-7.071C245.895-60.022,249.684-57.451,252.209-54.558Zm17.682,42.429c-.947,5.464-1.579,5.464-6.946-2.25-5.368-7.071-5.368-8.036-.947-6.107,4.1,1.607,5.368.321,5.683-5.143l.631-7.071,1.263,7.071C270.207-21.45,270.523-15.343,269.891-12.129ZM197.9,94.265c3.473,1.929,7.578,5.786,9.157,9,2.526,4.5,1.579,5.786-3.157,6.107-3.473.321-5.368-.643-4.42-2.571,2.526-3.857-8.525-3.857-18.629.321-10.1,3.857-10.42,1.286-1.263-8.679C187.166,90.086,189.376,89.765,197.9,94.265Z" transform="translate(0 0)"></path><path id="Path_2" data-name="Path 2" d="M120.711-66.289c-3.481,2.031-3.481,3.481,0,9.863,4.931,9.573,9.283,9.863,5.8.29-2.321-6.382-1.74-7.252,5.222-8.993,13.344-2.9,13.924-3.481,3.481-3.771C129.7-68.9,123.031-68.03,120.711-66.289Z" transform="translate(49.478 28.991)"></path><path id="Path_3" data-name="Path 3" d="M136.017-62.9c1.16,4.061,2.031,4.641,3.771,1.45,3.481-5.512,3.191-7.252-1.45-7.252C136.017-68.7,135.147-66.379,136.017-62.9Z" transform="translate(86.878 29.154)"></path><path id="Path_4" data-name="Path 4" d="M150.43-66.558c-2.321.87-9.863,5.222-16.825,9.863-13.924,9.573-15.084,16.825-2.9,20.016,7.542,2.031,8.7.87,16.825-14.214,4.641-8.7,8.413-16.245,7.832-16.535C155.071-67.719,152.75-67.429,150.43-66.558ZM139.986-47.123c-1.16,2.321-4.641,4.351-8.122,4.351-6.092-.29-6.092-.29-.58-4.351C138.536-52.634,142.017-52.634,139.986-47.123Z" transform="translate(59.216 32.467)"></path><path id="Path_5" data-name="Path 5" d="M109.134-60.675c1.16,3.771,2.321,5.222,3.191,2.9a7.9,7.9,0,0,0-1.74-6.672C108.264-66.767,107.974-65.607,109.134-60.675Z" transform="translate(27.848 36.069)"></path><path id="Path_6" data-name="Path 6" d="M122.142-56.159c-8.122,2.031-6.092,6.092,2.9,5.8,4.351,0,6.092-.58,4.061-1.16-1.741-.87-2.9-2.611-1.741-4.061.87-1.45,1.16-2.321.58-2.321C127.363-57.61,124.753-57.03,122.142-56.159Z" transform="translate(46.699 53.175)"></path><path id="Path_7" data-name="Path 7" d="M113-54.1a3.177,3.177,0,0,0,3.191,2.9c1.45,0,2.031-1.45,1.16-2.9-.87-1.741-2.321-2.9-3.191-2.9C113.58-57,113-55.84,113-54.1Z" transform="translate(37.665 55.097)"></path><path id="Path_8" data-name="Path 8" d="M130-54.1a3.12,3.12,0,0,0,2.9,2.9,2.907,2.907,0,0,0,2.9-2.9,2.741,2.741,0,0,0-2.9-2.9A2.907,2.907,0,0,0,130-54.1Z" transform="translate(74.519 55.097)"></path><path id="Path_9" data-name="Path 9" d="M123.489-50.452c-.87,2.321.29,6.382,2.611,8.7,3.771,3.771,4.641,3.771,7.832,0,2.031-2.611,3.191-6.672,2.031-8.993C133.932-56.544,125.81-56.254,123.489-50.452Z" transform="translate(60.126 60.206)"></path><path id="Path_10" data-name="Path 10" d="M116.972-42.267,110.3-31.244l5.8,8.7c3.481,4.641,7.542,9.573,9.283,10.733,2.9,2.031,12.764-8.122,13.054-13.344,0-1.45,2.031-4.931,4.351-7.542C150.042-40.816,143.95-53,132.637-53,125.965-53,122.484-50.679,116.972-42.267Zm24.367.58c0,1.741-2.611,7.542-6.092,13.054-4.931,8.7-6.962,9.863-11.6,7.542-3.191-2.031-4.641-4.641-3.481-7.832,1.45-3.481.87-4.061-2.031-2.321-4.061,2.611-2.031-2.321,4.351-9.283C125.965-44.588,141.339-45.458,141.339-41.687Z" transform="translate(32.68 66.434)"></path><path id="Path_11" data-name="Path 11" d="M130.155-46.794c-2.611,6.092-2.031,9.283,4.351,21.176,4.351,7.542,7.832,14.214,8.122,14.794.29.29,2.9,0,5.512-1.16,6.092-2.321,19.146-24.367,19.146-32.49,0-5.512-1.74-6.382-12.764-6.382-6.962,0-14.794-.58-16.825-1.45C135.086-53.466,132.186-51.145,130.155-46.794Zm34.23,4.931a2.953,2.953,0,0,1-3.191,2.611c-1.741,0-2.321,2.321-1.45,4.931,1.74,4.931,1.45,4.931-2.321,0-2.031-2.611-4.931-4.931-6.092-4.931s-.58,2.031,1.45,4.351c2.611,3.191,2.9,5.222.29,8.122-1.741,2.321-2.321,4.641-1.45,5.512.58.87-.58,2.321-3.191,3.191-4.931,2.031-17.985-20.306-13.924-24.077C139.728-47.374,164.385-47.084,164.385-41.862Z" transform="translate(73.813 67.39)"></path><path id="Path_12" data-name="Path 12" d="M117.7-39.352c-.29,3.481,1.16,9.863,2.611,14.214,3.771,9.573,1.741,12.184-4.351,5.8C109.573-25.718,100-30.649,100-27.459c0,4.641,20.6,17.985,27.268,17.985,1.45,0-3.191-20.6-6.672-29.3C117.985-45.444,117.7-45.444,117.7-39.352Z" transform="translate(8.364 86.8)"></path></g></g></svg>